<?xml version="1.0" standalone="no"?>
<!DOCTYPE svg PUBLIC "-//W3C//DTD SVG 20010904//EN"
 "http://www.w3.org/TR/2001/REC-SVG-20010904/DTD/svg10.dtd">
<svg version="1.0" xmlns="http://www.w3.org/2000/svg"
 width="150.000000pt" height="287.000000pt" viewBox="0 0 150.000000 287.000000"
 preserveAspectRatio="xMidYMid meet">

<g transform="translate(0.000000,287.000000) scale(0.100000,-0.100000)"
fill="red" stroke="none">
<path d="M733 2611 c2 -267 1 -272 -40 -285 -11 -3 -93 -80 -182 -171 l-163
-164 -171 59 c-94 33 -173 60 -174 60 -2 0 -3 -311 -3 -692 l0 -692 362 -363
c240 -240 370 -363 383 -363 13 0 145 125 388 368 l367 368 0 699 0 699 -367
368 c-205 205 -375 368 -385 368 -17 0 -18 -18 -15 -259z m200 -455 l175 -184
7 -74 c4 -41 1 -170 -8 -293 -12 -180 -15 -203 -16 -125 -2 69 -5 89 -11 72
-6 -14 -21 -25 -39 -28 -17 -4 -37 -17 -46 -30 -8 -13 -22 -24 -30 -24 -8 0
-15 -4 -15 -10 0 -5 -7 -10 -15 -10 -8 0 -15 -5 -15 -12 0 -22 -33 -48 -62
-48 -15 0 -28 -4 -28 -8 0 -4 -16 -14 -35 -21 -19 -7 -35 -17 -35 -22 0 -5 -9
-9 -20 -9 -11 0 -20 -4 -20 -10 0 -5 -5 -10 -11 -10 -6 0 -17 -7 -25 -15 -9
-8 -24 -15 -35 -15 -10 0 -19 -5 -19 -12 0 -9 -3 -9 -12 0 -9 9 -16 8 -30 -4
-15 -14 -18 -15 -23 -2 -4 9 -16 13 -40 10 -19 -2 -33 -7 -31 -11 2 -3 -9 -6
-25 -6 -16 0 -29 3 -29 8 0 15 -29 6 -33 -10 -3 -10 -5 153 -6 361 l-1 380
172 173 c95 95 175 173 179 173 4 0 86 -83 182 -184z m-545 -1071 c-1 -13 -6
-21 -10 -17 -5 5 -6 16 -2 25 9 24 14 21 12 -8z m-1 -82 c-3 -10 -5 -2 -5 17
0 19 2 27 5 18 2 -10 2 -26 0 -35z m0 -75 c-3 -7 -5 -2 -5 12 0 14 2 19 5 13
2 -7 2 -19 0 -25z m736 -66 c-11 -31 -362 -379 -368 -364 -8 21 20 54 175 207
78 77 148 153 156 168 12 23 18 26 29 17 8 -6 11 -19 8 -28z"/>
<path d="M770 525 c-7 -8 -8 -15 -2 -15 5 0 15 7 22 15 7 8 8 15 2 15 -5 0
-15 -7 -22 -15z"/>
</g>
</svg>
